<?xml version="1.0" encoding="UTF-8"?>
<!DOCTYPE svg PUBLIC "-//W3C//DTD SVG 1.1//EN" "http://www.w3.org/Graphics/SVG/1.1/DTD/svg11.dtd">
<!-- Creator: CorelDRAW 2020 (64 Bit) -->
<svg xmlns="http://www.w3.org/2000/svg" xml:space="preserve" width="210mm" height="297mm" version="1.1" style="shape-rendering:geometricPrecision; text-rendering:geometricPrecision; image-rendering:optimizeQuality; fill-rule:evenodd; clip-rule:evenodd"
viewBox="0 0 21000 29700"
 xmlns:xlink="http://www.w3.org/1999/xlink"
 xmlns:xodm="http://www.corel.com/coreldraw/odm/2003">
 <defs>
  <style type="text/css">
   <![CDATA[
    .fil1 {fill:black}
    .fil0 {fill:white}
   ]]>
  </style>
 </defs>
 <g id="Camada_x0020_1">
  <metadata id="CorelCorpID_0Corel-Layer"/>
  <g id="_1556879200496">
   <circle class="fil0" cx="10492.87" cy="14850.53" r="7693.12"/>
   <path class="fil1" d="M8437.32 10848.08c-92.51,61.5 -310.07,261.1 -401.93,353.56l-633.72 686.69c-133.57,175.79 -252.98,301.86 -413.02,528.17 -199.31,281.83 -271.57,299.71 -239.55,491.58 168.1,1007.33 425.52,2000.56 880.15,2911.8 264.49,530.13 126.84,407.09 947.44,561.42 417.4,78.5 854.27,178.12 1264.14,242.53 208.51,32.77 437.45,105.19 635.7,125.42 146.24,14.92 268.1,-178.78 431.21,-343.47 269.84,-272.47 1075.22,-1109.74 1276.64,-1364.9 66.48,-84.23 119.72,-120.47 178.91,-197.94 111.75,-146.28 226.03,-272.45 339.99,-413.83 263.97,-327.46 245.37,-307.11 189.55,-494.29 -59.41,-199.15 -117.48,-393.37 -173.85,-582.03 -125.6,-420.3 -266.16,-752.6 -393.59,-1131.15l-277.15 -666.36c-44.6,-51.92 -342.96,-131.92 -410.52,-153.03 -488.45,-152.6 -1354.39,-378.7 -1830.68,-438.25 -212.65,-26.58 -433.97,-61.46 -662.56,-90.95 -103.66,-13.37 -232.12,-18.73 -349.65,-25.42 -97.83,-5.57 -282.19,-49.63 -357.51,0.45zm-2769.9 -1398.43c80.64,-15.09 607.25,-312.67 769.3,-381.52 335.35,-142.48 673.03,-293.42 1040.33,-360.11 128.53,-23.34 291.66,-230.31 475.95,-382.61l629.6 -485.29c-980.24,271.88 -1504.29,564.66 -2291.77,1084.91 -88.76,58.64 -573.54,399.2 -623.41,524.62zm-2394.78 4674.8l17.61 -18.84c31.18,-43.61 198.64,-545.99 453.5,-937.34 214.55,-329.47 393.08,-550.5 667,-775.07 105.06,-86.13 54.3,-112.04 73.71,-288.95 47.87,-436.41 45.56,-468.66 140.07,-934.1 59.73,-294.2 152.2,-552.52 266.56,-815.78 38.6,-88.85 93.79,-166.1 120.91,-249.22 -41.61,20.96 -9.93,-5.92 -55.25,40.65 -11.49,11.81 -24.58,32.12 -37.65,48.02 -664.67,808.11 -1142.14,1670.39 -1425.79,2706.62 -88.15,322.05 -217.04,861.4 -220.67,1224.01zm12929.23 -2402.77l781.41 -85.43c32.94,-127.19 -535.64,-957.71 -597.06,-1042.52 -308.58,-426.08 -892.49,-1072.28 -1327.58,-1397.61 -48.49,-36.25 -80.79,-62.44 -116.17,-90.3 -219.15,-172.6 -1099.68,-770.35 -1308.78,-795.21l246.54 485.84c136.38,272.22 295.36,797.75 363.66,1123.43 20.22,96.41 72.53,96.69 198.45,182.8 548.07,374.83 1188.03,877.92 1594.71,1406.04 53.26,69.18 102.63,154.7 164.82,212.96zm-7518.81 10106.7c-8.86,-210.19 -4.59,-390.33 4.92,-591.27 6.81,-143.72 70.55,-475.91 55.25,-566.43 -543.33,-271.88 -675.12,-289.74 -1209.18,-727.24 -220.48,-180.61 -552.07,-489.32 -722.13,-718.1l-221.39 -274.28c-226.86,-15.92 -446.07,-7.02 -668.44,-34.84 -416.77,-52.13 -756.88,-121.51 -1147.09,-263.29 -64,-23.25 -455.58,-197.61 -476.46,-198.61 -23.12,218.01 147.93,372.2 315.39,620.59 287.21,426.04 770.38,909.79 1161.93,1254.06 448.48,394.33 930.61,688.99 1465.3,971.07 296.58,156.47 1100.96,496.61 1441.9,528.34zm7992.34 -4424.26c89.63,26.34 489.27,13.82 605.68,9.2 49.56,-192.24 135.73,-389.92 194.13,-593.57 200.61,-699.53 282,-1378.32 272.94,-2132.48 -11.57,-964.51 -237.61,-1897.15 -551.9,-2652.39 -84.22,-17.91 -762.99,45.8 -855.63,68.42 -76.05,18.56 -50.45,70.15 -54.53,166.86l-60.89 656.15c-42.74,322.35 -151.47,843.38 -255.99,1153.18 -193.36,573.11 -76.08,226.28 205.98,994.85 40.99,111.68 89.59,210.37 132.84,331.71 42.26,118.61 74.15,235.25 116.18,360.86 137.97,412.22 244,1213.82 251.19,1637.21zm-7524.94 3335.13c-91.06,278.75 -83.24,860.04 -69.6,1189.84 1112.24,264.87 2615.3,137.4 3671.33,-218.47 442.53,-149.13 747.32,-278.72 1166.9,-494.33 93.19,-47.89 471.35,-262.85 524.63,-322.74 12.33,-201 -23.7,-477.66 -63.44,-663.09 -253,-21.38 -537.79,-16.53 -788.65,-32.83 -709.95,-46.13 -1478.64,-149.54 -2124.56,-365.38 -291.58,-97.44 -107.48,-97.03 -543.11,172.88 -1199.47,743.14 -1571.97,630.33 -1773.5,734.12zm-1253.55 -11829.66c31.99,110.56 290.57,608.73 355.61,767.42 41.4,101.02 322.93,709.1 364.99,748.97 91.93,34.84 345.51,38.1 469.38,44.53 771.41,40.09 2037.37,336.85 2803.07,574.19 184.1,57.06 201.29,102.13 284.6,44.1 35.91,-25.01 41.71,-31.08 81.36,-56.67l1387.2 -962.1c156.54,-105.72 226.48,-72.19 160.28,-308.57 -142.26,-507.92 -335.82,-1006.97 -634.14,-1436.55 -241.27,-347.42 -199.59,-298.27 -613.12,-433.18 -687.66,-224.33 -1531.94,-329.6 -2303.39,-298.61 -255.03,10.25 -233.18,-3.73 -449.12,77.58 -606.12,228.25 -1133.15,564.36 -1630.03,977.79 -68.52,57.02 -230.95,195.03 -276.69,261.1zm-1364.5 9635.71c45.1,-80.33 87.25,-242.65 124.9,-338 40.11,-101.62 85.96,-229.35 124.88,-336.07 104.77,-287.25 287.27,-693.36 417.49,-993.24 168.85,-388.83 316.81,-446.36 195.33,-653.41 -146.26,-249.31 -258.55,-540.31 -376.05,-807.18 -173.95,-395.09 -390.26,-1165.9 -500.24,-1624.99 -38.51,-160.81 -110.14,-688.54 -166.6,-776.46 -37.36,-25.43 -1517.34,-388.73 -1610.24,-390.57 -169.1,219.76 -280.46,209.07 -465.71,491.56 -42.42,64.68 -82.28,119.39 -134.28,190.56 -335.63,459.29 -604.92,1331.14 -697.72,1909.17 -80.83,503.42 -74.05,696.13 70.08,1135.6 132.98,405.48 195.6,559.12 358.26,941 31.35,73.6 283.78,603.95 335.65,642.52 134.77,100.21 490.8,259.34 655.86,324.11 421.58,165.46 1247.74,336.82 1668.39,285.4zm6691.33 -4159.13l-289.42 375.34c-109.42,135.19 -197.59,237.99 -308.52,378.3l-1650.03 1762.06c-179.73,170.37 -175.8,114.03 -58.24,463.89 124.26,369.82 349,1186.29 439.69,1599.73 21.59,98.45 41.84,192.83 57.22,286.74 27.04,165.08 1.64,143.12 152.68,191.08 788.56,250.44 1531.24,343.27 2370.4,374.81 148.07,5.57 519.4,33.72 653.35,12.8 214.36,-33.46 925.69,-831.78 1058.09,-998.91 118.47,-149.52 624.82,-886.5 643.13,-1058.34 34.01,-319.05 -14.99,-651.11 -45.39,-959.78 -26.18,-265.93 -157.86,-861.42 -248.61,-1101.91 -149.22,-395.43 -113.47,-347.4 -298.74,-727.65 -178.9,-367.18 16.29,-252.99 -659.52,-370.26 -188.65,-32.74 -397.46,-63.56 -591.74,-91.17 -213.74,-30.39 -399.12,-60.49 -612.15,-82.64 -159.7,-16.61 -459.41,-70.2 -612.2,-54.09z"/>
  </g>
 </g>
 <g id="Camada_x0020_1_0">
  <metadata id="CorelCorpID_1Corel-Layer"/>
 </g>
</svg>
